<!-- Generated by IcoMoon.io -->
<svg version="1.1" xmlns="http://www.w3.org/2000/svg" width="26" height="32" viewBox="0 0 26 32">
<title>phone</title>
<path d="M19.355 17.065l-2.262-0.258c-0.543-0.062-1.078 0.125-1.461 0.508l-1.639 1.639c-2.521-1.283-4.587-3.34-5.87-5.87l1.648-1.648c0.383-0.383 0.57-0.917 0.508-1.461l-0.258-2.245c-0.107-0.9-0.864-1.577-1.772-1.577h-1.541c-1.006 0-1.844 0.837-1.781 1.844 0.472 7.606 6.555 13.681 14.153 14.153 1.007 0.062 1.844-0.775 1.844-1.781v-1.541c0.009-0.9-0.668-1.657-1.567-1.764z"></path>
</svg>
